# xmcd
#
# Track frame offsets:
#	150
#	19772
#	36117
#	54277
#	70947
#	89162
#	107375
#	122829
#	138602
#	154475
#
# Disc length: 2299 seconds
#
# Revision: 0
# Processed by: cddbd v1.5.2PL0 Copyright (c) Steve Scherf et al.
# Submitted via: EZCDAudioConverter 2.1.1.1
#
DISCID=8908f90a
DTITLE=믹스팩토리 - Mix Factory 9
DYEAR=1900
DGENRE=country
TTITLE0=N-Trance Feat. Rod Stewart - Do Ya Think I'm Sexy
TTITLE1=Caught  in The Act - Do It For Love
TTITLE2=이승훈 - 비오는 거리
TTITLE3=Backstreet Boys - As Long As You Love Me
TTITLE4=영진석 - Summer Dream
TTITLE5=Felicidad - Dam Dam Deo
TTITLE6=The Corpotation - One Night In Bangkok
TTITLE7=The Horny Hombres - Hossa!
TTITLE8=몰리 - 몰리
TTITLE9=Ament - People Of Love
EXTD=
EXTT0=
EXTT1=
EXTT2=
EXTT3=
EXTT4=
EXTT5=
EXTT6=
EXTT7=
EXTT8=
EXTT9=
PLAYORDER=
